<svg xmlns="http://www.w3.org/2000/svg" version="1.1" xmlns:xlink="http://www.w3.org/1999/xlink" xmlns:svgjs="http://svgjs.com/svgjs" width="1440" height="560" preserveAspectRatio="none" viewBox="0 0 1440 560"><g mask="url(&quot;#SvgjsMask1003&quot;)" fill="none"><rect width="1440" height="560" x="0" y="0" fill="rgba(3, 115, 110, 1)"></rect><path d="M24.26 -21.72L89.21 15.78L89.21 90.78L24.26 128.28L-40.69 90.78L-40.69 15.78zM219.12 90.78L284.07 128.28L284.07 203.28L219.12 240.78L154.17 203.28L154.17 128.28zM154.17 203.28L219.12 240.78L219.12 315.78L154.17 353.28L89.21 315.78L89.21 240.78zM219.12 315.78L284.07 353.28L284.07 428.28L219.12 465.78L154.17 428.28L154.17 353.28zM154.17 428.28L219.12 465.78L219.12 540.78L154.17 578.28L89.21 540.78L89.21 465.78zM284.07 203.28L349.03 240.78L349.03 315.78L284.07 353.28L219.12 315.78L219.12 240.78zM284.07 428.28L349.03 465.78L349.03 540.78L284.07 578.28L219.12 540.78L219.12 465.78zM413.98 203.28L478.94 240.78L478.94 315.78L413.98 353.28L349.03 315.78L349.03 240.78zM543.89 -21.72L608.84 15.78L608.84 90.78L543.89 128.28L478.94 90.78L478.94 15.78zM608.84 540.78L673.8 578.28L673.8 653.28L608.84 690.78L543.89 653.28L543.89 578.28zM673.8 -21.72L738.75 15.78L738.75 90.78L673.8 128.28L608.84 90.78L608.84 15.78zM673.8 203.28L738.75 240.78L738.75 315.78L673.8 353.28L608.84 315.78L608.84 240.78zM738.75 315.78L803.71 353.28L803.71 428.28L738.75 465.78L673.8 428.28L673.8 353.28zM803.7 -21.72L868.66 15.78L868.66 90.78L803.7 128.28L738.75 90.78L738.75 15.78zM868.66 315.78L933.61 353.28L933.61 428.28L868.66 465.78L803.7 428.28L803.7 353.28zM868.66 540.78L933.61 578.28L933.61 653.28L868.66 690.78L803.7 653.28L803.7 578.28zM1128.47 540.78L1193.43 578.28L1193.43 653.28L1128.47 690.78L1063.52 653.28L1063.52 578.28zM1193.43 203.28L1258.38 240.78L1258.38 315.78L1193.43 353.28L1128.47 315.78L1128.47 240.78zM1388.29 315.78L1453.24 353.28L1453.24 428.28L1388.29 465.78L1323.34 428.28L1323.34 353.28zM1323.34 428.28L1388.29 465.78L1388.29 540.78L1323.34 578.28L1258.38 540.78L1258.38 465.78zM1388.29 540.78L1453.24 578.28L1453.24 653.28L1388.29 690.78L1323.34 653.28L1323.34 578.28zM1453.24 -21.72L1518.2 15.78L1518.2 90.78L1453.24 128.28L1388.29 90.78L1388.29 15.78zM1518.2 90.78L1583.15 128.28L1583.15 203.28L1518.2 240.78L1453.24 203.28L1453.24 128.28zM1518.2 315.78L1583.15 353.28L1583.15 428.28L1518.2 465.78L1453.24 428.28L1453.24 353.28zM1453.24 428.28L1518.2 465.78L1518.2 540.78L1453.24 578.28L1388.29 540.78L1388.29 465.78zM1518.2 540.78L1583.15 578.28L1583.15 653.28L1518.2 690.78L1453.24 653.28L1453.24 578.28z" stroke="rgba(24, 200, 63, 1)" stroke-width="2"></path><path d="M16.76 -21.72 a7.5 7.5 0 1 0 15 0 a7.5 7.5 0 1 0 -15 0zM81.71 15.78 a7.5 7.5 0 1 0 15 0 a7.5 7.5 0 1 0 -15 0zM81.71 90.78 a7.5 7.5 0 1 0 15 0 a7.5 7.5 0 1 0 -15 0zM16.76 128.28 a7.5 7.5 0 1 0 15 0 a7.5 7.5 0 1 0 -15 0zM-48.19 90.78 a7.5 7.5 0 1 0 15 0 a7.5 7.5 0 1 0 -15 0zM-48.19 15.78 a7.5 7.5 0 1 0 15 0 a7.5 7.5 0 1 0 -15 0zM211.62 90.78 a7.5 7.5 0 1 0 15 0 a7.5 7.5 0 1 0 -15 0zM276.57 128.28 a7.5 7.5 0 1 0 15 0 a7.5 7.5 0 1 0 -15 0zM276.57 203.28 a7.5 7.5 0 1 0 15 0 a7.5 7.5 0 1 0 -15 0zM211.62 240.78 a7.5 7.5 0 1 0 15 0 a7.5 7.5 0 1 0 -15 0zM146.67 203.28 a7.5 7.5 0 1 0 15 0 a7.5 7.5 0 1 0 -15 0zM146.67 128.28 a7.5 7.5 0 1 0 15 0 a7.5 7.5 0 1 0 -15 0zM211.62 315.78 a7.5 7.5 0 1 0 15 0 a7.5 7.5 0 1 0 -15 0zM146.67 353.28 a7.5 7.5 0 1 0 15 0 a7.5 7.5 0 1 0 -15 0zM81.71 315.78 a7.5 7.5 0 1 0 15 0 a7.5 7.5 0 1 0 -15 0zM81.71 240.78 a7.5 7.5 0 1 0 15 0 a7.5 7.5 0 1 0 -15 0zM276.57 353.28 a7.5 7.5 0 1 0 15 0 a7.5 7.5 0 1 0 -15 0zM276.57 428.28 a7.5 7.5 0 1 0 15 0 a7.5 7.5 0 1 0 -15 0zM211.62 465.78 a7.5 7.5 0 1 0 15 0 a7.5 7.5 0 1 0 -15 0zM146.67 428.28 a7.5 7.5 0 1 0 15 0 a7.5 7.5 0 1 0 -15 0zM211.62 540.78 a7.5 7.5 0 1 0 15 0 a7.5 7.5 0 1 0 -15 0zM146.67 578.28 a7.5 7.5 0 1 0 15 0 a7.5 7.5 0 1 0 -15 0zM81.71 540.78 a7.5 7.5 0 1 0 15 0 a7.5 7.5 0 1 0 -15 0zM81.71 465.78 a7.5 7.5 0 1 0 15 0 a7.5 7.5 0 1 0 -15 0zM341.53 240.78 a7.5 7.5 0 1 0 15 0 a7.5 7.5 0 1 0 -15 0zM341.53 315.78 a7.5 7.5 0 1 0 15 0 a7.5 7.5 0 1 0 -15 0zM341.53 465.78 a7.5 7.5 0 1 0 15 0 a7.5 7.5 0 1 0 -15 0zM341.53 540.78 a7.5 7.5 0 1 0 15 0 a7.5 7.5 0 1 0 -15 0zM276.57 578.28 a7.5 7.5 0 1 0 15 0 a7.5 7.5 0 1 0 -15 0zM406.48 203.28 a7.5 7.5 0 1 0 15 0 a7.5 7.5 0 1 0 -15 0zM471.44 240.78 a7.5 7.5 0 1 0 15 0 a7.5 7.5 0 1 0 -15 0zM471.44 315.78 a7.5 7.5 0 1 0 15 0 a7.5 7.5 0 1 0 -15 0zM406.48 353.28 a7.5 7.5 0 1 0 15 0 a7.5 7.5 0 1 0 -15 0zM536.39 -21.72 a7.5 7.5 0 1 0 15 0 a7.5 7.5 0 1 0 -15 0zM601.34 15.78 a7.5 7.5 0 1 0 15 0 a7.5 7.5 0 1 0 -15 0zM601.34 90.78 a7.5 7.5 0 1 0 15 0 a7.5 7.5 0 1 0 -15 0zM536.39 128.28 a7.5 7.5 0 1 0 15 0 a7.5 7.5 0 1 0 -15 0zM471.44 90.78 a7.5 7.5 0 1 0 15 0 a7.5 7.5 0 1 0 -15 0zM471.44 15.78 a7.5 7.5 0 1 0 15 0 a7.5 7.5 0 1 0 -15 0zM601.34 540.78 a7.5 7.5 0 1 0 15 0 a7.5 7.5 0 1 0 -15 0zM666.3 578.28 a7.5 7.5 0 1 0 15 0 a7.5 7.5 0 1 0 -15 0zM666.3 653.28 a7.5 7.5 0 1 0 15 0 a7.5 7.5 0 1 0 -15 0zM601.34 690.78 a7.5 7.5 0 1 0 15 0 a7.5 7.5 0 1 0 -15 0zM536.39 653.28 a7.5 7.5 0 1 0 15 0 a7.5 7.5 0 1 0 -15 0zM536.39 578.28 a7.5 7.5 0 1 0 15 0 a7.5 7.5 0 1 0 -15 0zM666.3 -21.72 a7.5 7.5 0 1 0 15 0 a7.5 7.5 0 1 0 -15 0zM731.25 15.78 a7.5 7.5 0 1 0 15 0 a7.5 7.5 0 1 0 -15 0zM731.25 90.78 a7.5 7.5 0 1 0 15 0 a7.5 7.5 0 1 0 -15 0zM666.3 128.28 a7.5 7.5 0 1 0 15 0 a7.5 7.5 0 1 0 -15 0zM666.3 203.28 a7.5 7.5 0 1 0 15 0 a7.5 7.5 0 1 0 -15 0zM731.25 240.78 a7.5 7.5 0 1 0 15 0 a7.5 7.5 0 1 0 -15 0zM731.25 315.78 a7.5 7.5 0 1 0 15 0 a7.5 7.5 0 1 0 -15 0zM666.3 353.28 a7.5 7.5 0 1 0 15 0 a7.5 7.5 0 1 0 -15 0zM601.34 315.78 a7.5 7.5 0 1 0 15 0 a7.5 7.5 0 1 0 -15 0zM601.34 240.78 a7.5 7.5 0 1 0 15 0 a7.5 7.5 0 1 0 -15 0zM796.21 353.28 a7.5 7.5 0 1 0 15 0 a7.5 7.5 0 1 0 -15 0zM796.21 428.28 a7.5 7.5 0 1 0 15 0 a7.5 7.5 0 1 0 -15 0zM731.25 465.78 a7.5 7.5 0 1 0 15 0 a7.5 7.5 0 1 0 -15 0zM666.3 428.28 a7.5 7.5 0 1 0 15 0 a7.5 7.5 0 1 0 -15 0zM796.2 -21.72 a7.5 7.5 0 1 0 15 0 a7.5 7.5 0 1 0 -15 0zM861.16 15.78 a7.5 7.5 0 1 0 15 0 a7.5 7.5 0 1 0 -15 0zM861.16 90.78 a7.5 7.5 0 1 0 15 0 a7.5 7.5 0 1 0 -15 0zM796.2 128.28 a7.5 7.5 0 1 0 15 0 a7.5 7.5 0 1 0 -15 0zM861.16 315.78 a7.5 7.5 0 1 0 15 0 a7.5 7.5 0 1 0 -15 0zM926.11 353.28 a7.5 7.5 0 1 0 15 0 a7.5 7.5 0 1 0 -15 0zM926.11 428.28 a7.5 7.5 0 1 0 15 0 a7.5 7.5 0 1 0 -15 0zM861.16 465.78 a7.5 7.5 0 1 0 15 0 a7.5 7.5 0 1 0 -15 0zM796.2 428.28 a7.5 7.5 0 1 0 15 0 a7.5 7.5 0 1 0 -15 0zM796.2 353.28 a7.5 7.5 0 1 0 15 0 a7.5 7.5 0 1 0 -15 0zM861.16 540.78 a7.5 7.5 0 1 0 15 0 a7.5 7.5 0 1 0 -15 0zM926.11 578.28 a7.5 7.5 0 1 0 15 0 a7.5 7.5 0 1 0 -15 0zM926.11 653.28 a7.5 7.5 0 1 0 15 0 a7.5 7.5 0 1 0 -15 0zM861.16 690.78 a7.5 7.5 0 1 0 15 0 a7.5 7.5 0 1 0 -15 0zM796.2 653.28 a7.5 7.5 0 1 0 15 0 a7.5 7.5 0 1 0 -15 0zM796.2 578.28 a7.5 7.5 0 1 0 15 0 a7.5 7.5 0 1 0 -15 0zM1120.97 540.78 a7.5 7.5 0 1 0 15 0 a7.5 7.5 0 1 0 -15 0zM1185.93 578.28 a7.5 7.5 0 1 0 15 0 a7.5 7.5 0 1 0 -15 0zM1185.93 653.28 a7.5 7.5 0 1 0 15 0 a7.5 7.5 0 1 0 -15 0zM1120.97 690.78 a7.5 7.5 0 1 0 15 0 a7.5 7.5 0 1 0 -15 0zM1056.02 653.28 a7.5 7.5 0 1 0 15 0 a7.5 7.5 0 1 0 -15 0zM1056.02 578.28 a7.5 7.5 0 1 0 15 0 a7.5 7.5 0 1 0 -15 0zM1185.93 203.28 a7.5 7.5 0 1 0 15 0 a7.5 7.5 0 1 0 -15 0zM1250.88 240.78 a7.5 7.5 0 1 0 15 0 a7.5 7.5 0 1 0 -15 0zM1250.88 315.78 a7.5 7.5 0 1 0 15 0 a7.5 7.5 0 1 0 -15 0zM1185.93 353.28 a7.5 7.5 0 1 0 15 0 a7.5 7.5 0 1 0 -15 0zM1120.97 315.78 a7.5 7.5 0 1 0 15 0 a7.5 7.5 0 1 0 -15 0zM1120.97 240.78 a7.5 7.5 0 1 0 15 0 a7.5 7.5 0 1 0 -15 0zM1380.79 315.78 a7.5 7.5 0 1 0 15 0 a7.5 7.5 0 1 0 -15 0zM1445.74 353.28 a7.5 7.5 0 1 0 15 0 a7.5 7.5 0 1 0 -15 0zM1445.74 428.28 a7.5 7.5 0 1 0 15 0 a7.5 7.5 0 1 0 -15 0zM1380.79 465.78 a7.5 7.5 0 1 0 15 0 a7.5 7.5 0 1 0 -15 0zM1315.84 428.28 a7.5 7.5 0 1 0 15 0 a7.5 7.5 0 1 0 -15 0zM1315.84 353.28 a7.5 7.5 0 1 0 15 0 a7.5 7.5 0 1 0 -15 0zM1380.79 540.78 a7.5 7.5 0 1 0 15 0 a7.5 7.5 0 1 0 -15 0zM1315.84 578.28 a7.5 7.5 0 1 0 15 0 a7.5 7.5 0 1 0 -15 0zM1250.88 540.78 a7.5 7.5 0 1 0 15 0 a7.5 7.5 0 1 0 -15 0zM1250.88 465.78 a7.5 7.5 0 1 0 15 0 a7.5 7.5 0 1 0 -15 0zM1445.74 578.28 a7.5 7.5 0 1 0 15 0 a7.5 7.5 0 1 0 -15 0zM1445.74 653.28 a7.5 7.5 0 1 0 15 0 a7.5 7.5 0 1 0 -15 0zM1380.79 690.78 a7.5 7.5 0 1 0 15 0 a7.5 7.5 0 1 0 -15 0zM1315.84 653.28 a7.5 7.5 0 1 0 15 0 a7.5 7.5 0 1 0 -15 0zM1445.74 -21.72 a7.5 7.5 0 1 0 15 0 a7.5 7.5 0 1 0 -15 0zM1510.7 15.78 a7.5 7.5 0 1 0 15 0 a7.5 7.5 0 1 0 -15 0zM1510.7 90.78 a7.5 7.5 0 1 0 15 0 a7.5 7.5 0 1 0 -15 0zM1445.74 128.28 a7.5 7.5 0 1 0 15 0 a7.5 7.5 0 1 0 -15 0zM1380.79 90.78 a7.5 7.5 0 1 0 15 0 a7.5 7.5 0 1 0 -15 0zM1380.79 15.78 a7.5 7.5 0 1 0 15 0 a7.5 7.5 0 1 0 -15 0zM1575.65 128.28 a7.5 7.5 0 1 0 15 0 a7.5 7.5 0 1 0 -15 0zM1575.65 203.28 a7.5 7.5 0 1 0 15 0 a7.5 7.5 0 1 0 -15 0zM1510.7 240.78 a7.5 7.5 0 1 0 15 0 a7.5 7.5 0 1 0 -15 0zM1445.74 203.28 a7.5 7.5 0 1 0 15 0 a7.5 7.5 0 1 0 -15 0zM1510.7 315.78 a7.5 7.5 0 1 0 15 0 a7.5 7.5 0 1 0 -15 0zM1575.65 353.28 a7.5 7.5 0 1 0 15 0 a7.5 7.5 0 1 0 -15 0zM1575.65 428.28 a7.5 7.5 0 1 0 15 0 a7.5 7.5 0 1 0 -15 0zM1510.7 465.78 a7.5 7.5 0 1 0 15 0 a7.5 7.5 0 1 0 -15 0zM1510.7 540.78 a7.5 7.5 0 1 0 15 0 a7.5 7.5 0 1 0 -15 0zM1575.65 578.28 a7.5 7.5 0 1 0 15 0 a7.5 7.5 0 1 0 -15 0zM1575.65 653.28 a7.5 7.5 0 1 0 15 0 a7.5 7.5 0 1 0 -15 0zM1510.7 690.78 a7.5 7.5 0 1 0 15 0 a7.5 7.5 0 1 0 -15 0z" fill="rgba(24, 200, 63, 1)"></path><path d="M6.91 113.65L50.21 138.65L50.21 188.65L6.91 213.65L-36.39 188.65L-36.39 138.65zM50.21 188.65L93.52 213.65L93.52 263.65L50.21 288.65L6.91 263.65L6.91 213.65zM6.91 413.65L50.21 438.65L50.21 488.65L6.91 513.65L-36.39 488.65L-36.39 438.65zM93.52 -36.35L136.82 -11.35L136.82 38.65L93.52 63.65L50.21 38.65L50.21 -11.35zM136.82 38.65L180.12 63.65L180.12 113.65L136.82 138.65L93.52 113.65L93.52 63.65zM93.52 263.65L136.82 288.65L136.82 338.65L93.52 363.65L50.21 338.65L50.21 288.65zM93.52 413.65L136.82 438.65L136.82 488.65L93.52 513.65L50.21 488.65L50.21 438.65zM136.82 488.65L180.12 513.65L180.12 563.65L136.82 588.65L93.52 563.65L93.52 513.65zM223.42 38.65L266.73 63.65L266.73 113.65L223.42 138.65L180.12 113.65L180.12 63.65zM180.12 113.65L223.42 138.65L223.42 188.65L180.12 213.65L136.82 188.65L136.82 138.65zM223.42 188.65L266.73 213.65L266.73 263.65L223.42 288.65L180.12 263.65L180.12 213.65zM180.12 263.65L223.42 288.65L223.42 338.65L180.12 363.65L136.82 338.65L136.82 288.65zM180.12 413.65L223.42 438.65L223.42 488.65L180.12 513.65L136.82 488.65L136.82 438.65zM266.73 -36.35L310.03 -11.35L310.03 38.65L266.73 63.65L223.42 38.65L223.42 -11.35zM310.03 38.65L353.33 63.65L353.33 113.65L310.03 138.65L266.73 113.65L266.73 63.65zM266.73 263.65L310.03 288.65L310.03 338.65L266.73 363.65L223.42 338.65L223.42 288.65zM396.63 38.65L439.94 63.65L439.94 113.65L396.63 138.65L353.33 113.65L353.33 63.65zM396.63 488.65L439.94 513.65L439.94 563.65L396.63 588.65L353.33 563.65L353.33 513.65zM483.24 38.65L526.54 63.65L526.54 113.65L483.24 138.65L439.94 113.65L439.94 63.65zM483.24 188.65L526.54 213.65L526.54 263.65L483.24 288.65L439.94 263.65L439.94 213.65zM483.24 338.65L526.54 363.65L526.54 413.65L483.24 438.65L439.94 413.65L439.94 363.65zM439.94 413.65L483.24 438.65L483.24 488.65L439.94 513.65L396.63 488.65L396.63 438.65zM569.84 38.65L613.14 63.65L613.14 113.65L569.84 138.65L526.54 113.65L526.54 63.65zM526.54 113.65L569.84 138.65L569.84 188.65L526.54 213.65L483.24 188.65L483.24 138.65zM526.54 263.65L569.84 288.65L569.84 338.65L526.54 363.65L483.24 338.65L483.24 288.65zM569.84 338.65L613.14 363.65L613.14 413.65L569.84 438.65L526.54 413.65L526.54 363.65zM656.45 188.65L699.75 213.65L699.75 263.65L656.45 288.65L613.14 263.65L613.14 213.65zM656.45 338.65L699.75 363.65L699.75 413.65L656.45 438.65L613.14 413.65L613.14 363.65zM613.14 413.65L656.45 438.65L656.45 488.65L613.14 513.65L569.84 488.65L569.84 438.65zM656.45 488.65L699.75 513.65L699.75 563.65L656.45 588.65L613.14 563.65L613.14 513.65zM699.75 -36.35L743.05 -11.35L743.05 38.65L699.75 63.65L656.45 38.65L656.45 -11.35zM699.75 113.65L743.05 138.65L743.05 188.65L699.75 213.65L656.45 188.65L656.45 138.65zM699.75 413.65L743.05 438.65L743.05 488.65L699.75 513.65L656.45 488.65L656.45 438.65zM786.36 -36.35L829.66 -11.35L829.66 38.65L786.36 63.65L743.05 38.65L743.05 -11.35zM829.66 38.65L872.96 63.65L872.96 113.65L829.66 138.65L786.36 113.65L786.36 63.65zM786.36 413.65L829.66 438.65L829.66 488.65L786.36 513.65L743.05 488.65L743.05 438.65zM916.26 38.65L959.57 63.65L959.57 113.65L916.26 138.65L872.96 113.65L872.96 63.65zM916.26 338.65L959.57 363.65L959.57 413.65L916.26 438.65L872.96 413.65L872.96 363.65zM916.26 488.65L959.57 513.65L959.57 563.65L916.26 588.65L872.96 563.65L872.96 513.65zM959.57 -36.35L1002.87 -11.35L1002.87 38.65L959.57 63.65L916.26 38.65L916.26 -11.35zM959.57 113.65L1002.87 138.65L1002.87 188.65L959.57 213.65L916.26 188.65L916.26 138.65zM1002.87 188.65L1046.17 213.65L1046.17 263.65L1002.87 288.65L959.57 263.65L959.57 213.65zM959.57 413.65L1002.87 438.65L1002.87 488.65L959.57 513.65L916.26 488.65L916.26 438.65zM1046.17 -36.35L1089.47 -11.35L1089.47 38.65L1046.17 63.65L1002.87 38.65L1002.87 -11.35zM1089.47 38.65L1132.78 63.65L1132.78 113.65L1089.47 138.65L1046.17 113.65L1046.17 63.65zM1046.17 113.65L1089.47 138.65L1089.47 188.65L1046.17 213.65L1002.87 188.65L1002.87 138.65zM1046.17 413.65L1089.47 438.65L1089.47 488.65L1046.17 513.65L1002.87 488.65L1002.87 438.65zM1132.78 -36.35L1176.08 -11.35L1176.08 38.65L1132.78 63.65L1089.47 38.65L1089.47 -11.35zM1176.08 38.65L1219.38 63.65L1219.38 113.65L1176.08 138.65L1132.78 113.65L1132.78 63.65zM1132.78 113.65L1176.08 138.65L1176.08 188.65L1132.78 213.65L1089.47 188.65L1089.47 138.65zM1176.08 188.65L1219.38 213.65L1219.38 263.65L1176.08 288.65L1132.78 263.65L1132.78 213.65zM1219.38 -36.35L1262.68 -11.35L1262.68 38.65L1219.38 63.65L1176.08 38.65L1176.08 -11.35zM1219.38 263.65L1262.68 288.65L1262.68 338.65L1219.38 363.65L1176.08 338.65L1176.08 288.65zM1262.68 338.65L1305.99 363.65L1305.99 413.65L1262.68 438.65L1219.38 413.65L1219.38 363.65zM1219.38 413.65L1262.68 438.65L1262.68 488.65L1219.38 513.65L1176.08 488.65L1176.08 438.65zM1262.68 488.65L1305.99 513.65L1305.99 563.65L1262.68 588.65L1219.38 563.65L1219.38 513.65zM1349.29 338.65L1392.59 363.65L1392.59 413.65L1349.29 438.65L1305.99 413.65L1305.99 363.65zM1392.59 -36.35L1435.89 -11.35L1435.89 38.65L1392.59 63.65L1349.29 38.65L1349.29 -11.35zM1435.89 188.65L1479.2 213.65L1479.2 263.65L1435.89 288.65L1392.59 263.65L1392.59 213.65zM1392.59 263.65L1435.89 288.65L1435.89 338.65L1392.59 363.65L1349.29 338.65L1349.29 288.65z" stroke="rgba(228, 232, 236, 0.93)" stroke-width="2"></path></g><defs><mask id="SvgjsMask1003"><rect width="1440" height="560" fill="#ffffff"></rect></mask></defs></svg>